<svg width="300" height="298" viewBox="0 0 300 298" fill="none" xmlns="http://www.w3.org/2000/svg">
<path d="M55.5 137C25.0535 99.8473 38.4999 0 38.4999 0C49.721 86.2654 74.0869 120.033 157.5 148C157.5 148 85.5994 173.729 55.5 137Z" fill="currentColor"/>
<path d="M137.739 248.354C100.587 280.398 0.739487 266.246 0.739487 266.246C87.0049 254.436 120.773 228.791 148.739 141C148.739 141 174.469 216.674 137.739 248.354Z" fill="currentColor"/>
<path d="M252.141 160.76C282.587 197.913 269.141 297.76 269.141 297.76C257.92 211.495 233.554 177.727 150.141 149.76C150.141 149.76 222.041 124.031 252.141 160.76Z" fill="currentColor"/>
<path d="M162.26 54.7605C199.413 24.3141 299.26 37.7604 299.26 37.7604C212.995 48.9815 179.227 73.3474 151.26 156.76C151.26 156.76 125.531 84.8599 162.26 54.7605Z" fill="currentColor"/>
</svg>
