<svg width="247" height="168" viewBox="0 0 247 168" fill="none" xmlns="http://www.w3.org/2000/svg">
<path d="M126.852 1.5904C185.22 -5.66545 242.25 33.4342 242.25 33.4342C136.145 9.52441 106.312 16.8116 9.5777 64.8428C9.5777 64.8428 33.3098 39.7237 67.8292 22.9165C86.0118 12.7714 106.621 4.10537 126.852 1.5904Z" fill="currentColor"/>
<path d="M122.161 45.4453C180.529 38.1895 242.25 78.3368 242.25 78.3368C192.724 67.1766 158.793 62.5849 126.852 65.7458C116.977 66.9734 106.592 69.3118 96.1675 72.3404C94.219 72.9065 92.4435 73.2167 90.8707 73.3231C75.7229 77.6303 61.0923 83.0117 48.3265 88.2675C35.1416 93.9727 20.8625 100.765 4.88673 108.698C4.88673 108.698 65.0317 52.5472 122.161 45.4453Z" fill="currentColor"/>
<path d="M246.941 122.192C140.836 98.2819 96.9299 119.702 0.195755 167.733C0.195755 167.733 60.3407 104.836 117.47 97.7338C175.838 90.478 246.941 122.192 246.941 122.192Z" fill="currentColor"/>
</svg>
